<svg viewBox="0 0 128 128" xmlns="http://www.w3.org/2000/svg"><path d="M114.3 106.6l10.4-59.7c1.8-10.5-4.9-20.6-15.3-22.9l-82-18.6C14 2.3 1.6 13.4 3.1 27.1l8.8 78.3c1.1 10.1 9.7 17.8 19.9 17.8h62.8c9.8-.1 18.1-7.1 19.7-16.6z" fill="#EBDEEE"/><circle cx="64" cy="64" fill="#C3E8F4" r="50"/><path d="M64 115.2c-28.3 0-51.2-23-51.2-51.2s23-51.2 51.2-51.2 51.2 23 51.2 51.2-22.9 51.2-51.2 51.2zm0-100c-26.9 0-48.8 21.9-48.8 48.8s21.9 48.8 48.8 48.8 48.8-21.9 48.8-48.8S90.9 15.2 64 15.2z" fill="#62345B"/><path d="M101 98.4c-.2 0-.4 0-.6-.2-9.3-5.1-22.6-8-36.4-8-13.8 0-27 2.9-36.3 8-.6.3-1.4.1-1.7-.5-.3-.6-.1-1.4.5-1.7 9.6-5.3 23.3-8.3 37.5-8.3 14.3 0 28 3 37.6 8.4.6.3.8 1.1.5 1.7-.2.4-.6.6-1.1.6zM64 40.2c-14.4 0-28.2-3.1-37.8-8.5-.6-.3-.8-1.1-.5-1.7s1.1-.8 1.7-.5c9.3 5.2 22.6 8.2 36.6 8.2 13.9 0 27.2-3 36.5-8.1.6-.3 1.4-.1 1.7.5.3.6.1 1.4-.5 1.7-9.6 5.4-23.4 8.4-37.7 8.4z" fill="#62345B"/><path d="M64 115.2c-14.5 0-26.2-23-26.2-51.2S49.5 12.8 64 12.8s26.2 23 26.2 51.2-11.7 51.2-26.2 51.2zm0-100c-13.1 0-23.8 21.9-23.8 48.8s10.7 48.8 23.8 48.8S87.8 90.9 87.8 64 77.1 15.2 64 15.2z" fill="#62345B"/><path d="M114 65.2H14c-.7 0-1.2-.6-1.2-1.2s.6-1.2 1.2-1.2h100c.7 0 1.2.6 1.2 1.2s-.5 1.2-1.2 1.2z" fill="#62345B"/><path d="M64 115.2c-.7 0-1.2-.6-1.2-1.2V14c0-.7.6-1.2 1.2-1.2s1.2.6 1.2 1.2v100c0 .7-.5 1.2-1.2 1.2z" fill="#62345B"/><path d="M110.9 122.5l-18.8-18.8 11.6-11.6 18.8 18.8c2.4 2.4 2.4 6.3 0 8.8l-2.9 2.9c-2.3 2.4-6.3 2.4-8.7-.1z" fill="#ED9E77"/><path fill="#ECEBEC" d="M92.1 103.7l7.7 7.7 11.6-11.6-7.7-7.7"/><path d="M99.8 112.7c-.3 0-.6-.1-.9-.4-.5-.5-.5-1.3 0-1.8l11.6-11.6c.5-.5 1.3-.5 1.8 0s.5 1.3 0 1.8l-11.6 11.6c-.2.3-.6.4-.9.4z" fill="#62345B"/><path d="M115.3 125.6c-2 0-3.9-.8-5.3-2.2l-18.8-18.8c-.5-.5-.5-1.3 0-1.8l11.6-11.6c.5-.5 1.3-.5 1.8 0l18.8 18.8c1.4 1.4 2.2 3.3 2.2 5.3s-.8 3.9-2.2 5.3l-2.9 2.9c-1.3 1.3-3.2 2.1-5.2 2.1zm-21.5-21.9l18 18c.9.9 2.2 1.4 3.5 1.4 1.3 0 2.6-.5 3.5-1.4l2.9-2.9c.9-.9 1.4-2.2 1.4-3.5 0-1.3-.5-2.6-1.4-3.5l-18-18-9.9 9.9z" fill="#62345B"/><path d="M121.1 109.5l-13.6-13.6-3.9-3.9-3.3 3.3-8.3 8.3 3.9 3.9c2.3-1.4 4.5-3.2 6.5-5.1.9-.9 1.6-1.7 2.4-2.7l9.7 9.7c3.2 3.2 3.2 8.4 0 11.6-.7.7-1.6 1.3-2.5 1.7 3 1.3 6.6.7 9.1-1.7 3.2-3.1 3.2-8.3 0-11.5z" fill="#62345B" opacity=".1"/><path d="M100.1 53.6c-12.8-12.8-33.6-12.8-46.5 0-12.8 12.8-12.8 33.6 0 46.5 12.8 12.8 33.6 12.8 46.5 0 12.8-12.8 12.8-33.6 0-46.5zm-3.9 42.6c-10.7 10.7-28 10.7-38.7 0-10.7-10.7-10.7-28 0-38.7 10.7-10.7 28-10.7 38.7 0 10.7 10.7 10.7 28 0 38.7z" fill="#ECEBEC"/><path d="M76.9 111c-9.1 0-17.7-3.5-24.1-10s-10-15-10-24.1 3.5-17.7 10-24.1 15-10 24.1-10c9.1 0 17.7 3.5 24.1 10s10 15 10 24.1-3.5 17.7-10 24.1-15 10-24.1 10zm0-65.8c-8.4 0-16.4 3.3-22.3 9.3-6 6-9.3 13.9-9.3 22.3s3.3 16.4 9.3 22.3c6 6 13.9 9.3 22.3 9.3s16.4-3.3 22.3-9.3c6-6 9.3-13.9 9.3-22.3s-3.3-16.4-9.3-22.3c-6-6-13.9-9.3-22.3-9.3z" fill="#62345B"/><circle cx="76.9" cy="76.9" fill="#E9E8E7" r="27.4" opacity=".5"/><path fill="#AB7866" d="M50 92.1l11.6 11.6"/><circle cx="69.2" cy="69.2" fill="#FEFEFC" r="3.8" opacity=".7"/><path d="M57.5 96.2c6.3-19.5 19.2-32.4 38.7-38.7-10.7-10.7-28-10.7-38.7 0s-10.7 28 0 38.7z" fill="#FEFEFC" opacity=".5"/><path d="M76.9 105.5c-7.6 0-14.8-3-20.2-8.4s-8.4-12.6-8.4-20.2 3-14.8 8.4-20.2 12.6-8.4 20.2-8.4 14.8 3 20.2 8.4c11.2 11.2 11.2 29.3 0 40.5-5.4 5.3-12.6 8.3-20.2 8.3zm0-54.8c-7 0-13.5 2.7-18.5 7.7-4.9 4.9-7.7 11.5-7.7 18.5s2.7 13.5 7.7 18.5c4.9 4.9 11.5 7.7 18.5 7.7s13.5-2.7 18.5-7.7c10.2-10.2 10.2-26.8 0-37-5-5-11.6-7.7-18.5-7.7z" fill="#62345B"/></svg>